<svg width="1440" height="1024" viewBox="0 0 1440 1024" fill="none" xmlns="http://www.w3.org/2000/svg">
<g clip-path="url(#clip0)">
<rect width="1440" height="1024" fill="white"/>
<path d="M150.452 236.995C150.452 242.28 154.734 246.578 160 246.578C165.266 246.578 169.548 242.28 169.548 236.995C169.548 231.71 165.266 227.413 160 227.413C154.734 227.413 150.452 231.71 150.452 236.995ZM164.774 236.995C164.774 239.638 162.633 241.787 160 241.787C157.367 241.787 155.226 239.638 155.226 236.995C155.226 234.353 157.367 232.204 160 232.204C162.633 232.204 164.774 234.353 164.774 236.995Z" fill="#259BDD"/>
<path d="M183.871 157.936H179.097V169.915H183.871V157.936Z" fill="#259BDD"/>
<path d="M210.129 173.302V141.166H205.355V171.319L198.893 177.804L202.268 181.192L210.129 173.302Z" fill="#259BDD"/>
<path d="M229.226 187.677V160.332H224.452V185.693L217.99 192.178L221.365 195.566L229.226 187.677Z" fill="#259BDD"/>
<path d="M181.484 153.145C185.432 153.145 188.645 149.92 188.645 145.957C188.645 141.995 185.432 138.77 181.484 138.77C177.536 138.77 174.323 141.995 174.323 145.957C174.323 149.92 177.536 153.145 181.484 153.145ZM181.484 143.562C182.799 143.562 183.871 144.637 183.871 145.957C183.871 147.277 182.799 148.353 181.484 148.353C180.169 148.353 179.097 147.277 179.097 145.957C179.097 144.637 180.169 143.562 181.484 143.562Z" fill="#FFF500"/>
<path d="M162.387 141.166H157.613V167.519H162.387V141.166Z" fill="#259BDD"/>
<path d="M160 136.374C163.948 136.374 167.161 133.15 167.161 129.187C167.161 125.225 163.948 122 160 122C156.052 122 152.839 125.225 152.839 129.187C152.839 133.15 156.052 136.374 160 136.374ZM160 126.791C161.315 126.791 162.387 127.867 162.387 129.187C162.387 130.507 161.315 131.583 160 131.583C158.685 131.583 157.613 130.507 157.613 129.187C157.613 127.867 158.685 126.791 160 126.791Z" fill="#259BDD"/>
<path d="M207.742 136.374C211.69 136.374 214.903 133.15 214.903 129.187C214.903 125.225 211.69 122 207.742 122C203.794 122 200.581 125.225 200.581 129.187C200.581 133.15 203.794 136.374 207.742 136.374ZM207.742 126.791C209.057 126.791 210.129 127.867 210.129 129.187C210.129 130.507 209.057 131.583 207.742 131.583C206.427 131.583 205.355 130.507 205.355 129.187C205.355 127.867 206.427 126.791 207.742 126.791Z" fill="#25DDB1"/>
<path d="M226.839 155.54C230.787 155.54 234 152.316 234 148.353C234 144.391 230.787 141.166 226.839 141.166C222.89 141.166 219.677 144.391 219.677 148.353C219.677 152.316 222.89 155.54 226.839 155.54ZM226.839 145.957C228.154 145.957 229.226 147.033 229.226 148.353C229.226 149.673 228.154 150.749 226.839 150.749C225.523 150.749 224.452 149.673 224.452 148.353C224.452 147.033 225.523 145.957 226.839 145.957Z" fill="#DD2546"/>
<path d="M140.903 157.936H136.129V172.31H140.903V157.936Z" fill="#259BDD"/>
<path d="M109.871 141.166V173.302L117.732 181.192L121.107 177.804L114.645 171.319V141.166H109.871Z" fill="#259BDD"/>
<path d="M90.7742 160.332V187.677L103.409 200.357L106.784 196.97L95.5484 185.693V160.332H90.7742Z" fill="#259BDD"/>
<path d="M138.516 153.145C142.464 153.145 145.677 149.92 145.677 145.957C145.677 141.995 142.464 138.77 138.516 138.77C134.568 138.77 131.355 141.995 131.355 145.957C131.355 149.92 134.568 153.145 138.516 153.145ZM138.516 143.562C139.831 143.562 140.903 144.637 140.903 145.957C140.903 147.277 139.831 148.353 138.516 148.353C137.201 148.353 136.129 147.277 136.129 145.957C136.129 144.637 137.201 143.562 138.516 143.562Z" fill="#FFF500"/>
<path d="M112.258 136.374C116.206 136.374 119.419 133.15 119.419 129.187C119.419 125.225 116.206 122 112.258 122C108.31 122 105.097 125.225 105.097 129.187C105.097 133.15 108.31 136.374 112.258 136.374ZM112.258 126.791C113.573 126.791 114.645 127.867 114.645 129.187C114.645 130.507 113.573 131.583 112.258 131.583C110.943 131.583 109.871 130.507 109.871 129.187C109.871 127.867 110.943 126.791 112.258 126.791Z" fill="#25DDB1"/>
<path d="M93.1613 155.54C97.1095 155.54 100.323 152.316 100.323 148.353C100.323 144.391 97.1095 141.166 93.1613 141.166C89.213 141.166 86 144.391 86 148.353C86 152.316 89.213 155.54 93.1613 155.54ZM93.1613 145.957C94.4766 145.957 95.5484 147.033 95.5484 148.353C95.5484 149.673 94.4766 150.749 93.1613 150.749C91.846 150.749 90.7742 149.673 90.7742 148.353C90.7742 147.033 91.846 145.957 93.1613 145.957Z" fill="#DD2546"/>
<path d="M185.821 224.605L181.515 226.675C181.878 227.436 182.205 228.22 182.486 229.022L182.914 230.239L188.645 231.677V242.309L182.914 243.747L182.486 244.964C182.205 245.769 181.88 246.55 181.515 247.312L180.961 248.473L184 253.56L176.509 261.077L171.441 258.028L170.284 258.583C169.524 258.948 168.744 259.276 167.944 259.559L166.732 259.987L165.297 265.744H154.703L153.271 259.992L152.058 259.563C151.256 259.281 150.478 258.955 149.719 258.588L148.561 258.032L143.493 261.082L134.685 252.242L131.309 255.63L142.753 267.115L148.847 263.447C148.984 263.504 149.12 263.562 149.256 263.617L150.974 270.536H169.026L170.749 263.619C170.885 263.564 171.021 263.507 171.157 263.449L177.252 267.117L190.013 254.309L186.358 248.193C186.416 248.057 186.473 247.92 186.528 247.783L193.419 246.054V227.937L186.528 226.207C186.308 225.668 186.072 225.132 185.821 224.605Z" fill="#259BDD"/>
<path d="M126.581 227.937V246.054L133.472 247.783C133.689 248.325 133.926 248.859 134.179 249.386L138.485 247.316C138.122 246.554 137.795 245.771 137.514 244.968L137.086 243.751L131.355 242.312V231.679L137.086 230.242L137.514 229.025C137.795 228.22 138.12 227.439 138.485 226.677L139.039 225.515L136 220.429L143.491 212.911L148.559 215.961L149.716 215.405C150.476 215.041 151.256 214.713 152.056 214.43L153.268 214.001L154.701 208.249H165.295L166.727 214.001L167.94 214.43C168.742 214.713 169.52 215.039 170.279 215.405L171.437 215.961L176.504 212.911L185.313 221.751L188.688 218.364L177.244 206.879L171.15 210.547C171.014 210.489 170.878 210.432 170.742 210.376L169.026 203.455H150.974L149.251 210.372C149.115 210.427 148.979 210.484 148.843 210.542L142.748 206.874L129.987 219.681L133.642 225.798C133.584 225.934 133.527 226.071 133.472 226.207L126.581 227.937Z" fill="#259BDD"/>
<path d="M224.437 213.227C224.44 213.165 224.452 213.1 224.452 213.038C224.452 202.626 216.133 194.145 205.818 193.896C203.903 190.573 200.71 188.096 196.912 187.135C194.133 179.771 187.027 174.706 179.097 174.706C176.149 174.706 173.244 175.401 170.601 176.723C166.868 173.865 162.318 172.311 157.613 172.311C152.108 172.311 146.845 174.445 142.873 178.206C140.75 177.5 138.485 177.102 136.129 177.102C125.521 177.102 116.521 184.912 114.917 195.36C110.542 197.336 107.157 201.15 105.777 205.937C94.7272 206.816 86 216.102 86 227.412C86 239.3 95.6391 248.974 107.484 248.974H121.806V244.183H107.484C98.2697 244.183 90.7742 236.66 90.7742 227.412C90.7742 218.165 98.2697 210.642 107.484 210.642C112.585 210.642 117.34 212.937 120.532 216.936L124.26 213.941C120.854 209.672 116.056 206.946 110.773 206.131C112.561 201.694 116.846 198.664 121.806 198.664C126.053 198.664 130.013 200.959 132.145 204.651L136.275 202.25C133.293 197.082 127.75 193.872 121.806 193.872C121.229 193.872 120.661 193.908 120.097 193.966C122.138 186.932 128.614 181.893 136.129 181.893C145.343 181.893 152.839 189.416 152.839 198.664H157.613C157.613 191.007 153.603 184.287 147.594 180.461C150.464 178.302 153.973 177.102 157.613 177.102C161.714 177.102 165.667 178.626 168.746 181.395L170.076 182.591L171.594 181.649C173.862 180.243 176.457 179.498 179.097 179.498C184.298 179.498 189.022 182.409 191.529 186.824C184.523 187.758 179.097 193.779 179.097 201.059H183.871C183.871 195.774 188.153 191.476 193.419 191.476C198.685 191.476 202.968 195.774 202.968 201.059C202.968 206.344 198.685 210.642 193.419 210.642V215.434C201.318 215.434 207.742 208.987 207.742 201.059C207.742 200.307 207.666 199.574 207.556 198.851C213.827 199.828 218.758 204.89 219.553 211.241C218.061 210.865 216.51 210.642 214.903 210.642C208.145 210.642 202.027 214.114 198.535 219.931L202.624 222.403C205.245 218.038 209.833 215.434 214.903 215.434C222.802 215.434 229.226 221.881 229.226 229.808C229.226 237.736 222.802 244.183 214.903 244.183H198.194V248.974H214.903C225.433 248.974 234 240.376 234 229.808C234 222.726 230.145 216.545 224.437 213.227Z" fill="#259BDD"/>
<path d="M217.29 229.808H212.516V234.6H217.29V229.808Z" fill="#259BDD"/>
<path d="M157.613 217.83V217.995C148.208 219.181 140.903 227.24 140.903 236.995C140.903 247.563 149.471 256.161 160 256.161C169.72 256.161 177.75 248.83 178.932 239.391H179.097V234.6H178.932C177.851 225.946 171.009 219.083 162.387 217.995V217.83H157.613ZM174.323 236.995C174.323 244.923 167.899 251.37 160 251.37C152.101 251.37 145.677 244.923 145.677 236.995C145.677 229.068 152.101 222.621 160 222.621C167.899 222.621 174.323 229.068 174.323 236.995Z" fill="#259BDD"/>
<path d="M109.871 232.204H105.097V236.995H109.871V232.204Z" fill="#259BDD"/>
<path d="M145.677 191.476H140.903V196.268H145.677V191.476Z" fill="#259BDD"/>
<path d="M174.323 189.081H169.548V193.872H174.323V189.081Z" fill="#259BDD"/>
<g filter="url(#filter0_i)">
<path d="M149.617 279.379C149.494 279.309 149.372 279.232 149.257 279.14C147.761 277.94 146.128 276.608 144.702 275.438C142.639 273.745 140.254 271.775 138.59 270.397C137.447 269.451 136.159 268.804 134.947 268.558C134.165 268.404 133.452 268.419 132.9 268.65C132.447 268.835 132.056 269.204 131.788 269.789C131.443 270.551 131.282 271.644 131.374 273.114C131.458 274.415 131.911 275.846 132.509 277.216C133.398 279.24 134.602 281.095 135.492 282.288C135.546 282.357 135.592 282.434 135.638 282.511L153.52 308.147C153.75 308.478 153.881 308.847 153.927 309.224H153.934C154.287 312.187 154.916 314.404 155.844 315.797C156.519 316.805 157.385 317.321 158.466 317.29H158.52V317.282H186.418C186.487 317.282 186.548 317.282 186.617 317.29C188.365 317.267 189.96 316.744 191.41 315.735C193.012 314.627 194.469 312.903 195.796 310.579C195.819 310.54 195.842 310.494 195.873 310.456C196.387 309.571 197.061 308.455 197.721 307.362C200.573 302.644 203.058 298.55 203.357 292.708L203.173 284.651C203.158 284.535 203.15 284.42 203.15 284.304C203.15 284.196 203.165 283.435 203.173 282.411C203.242 277.085 203.319 270.497 198.465 269.666H195.359H195.328C195.313 271.167 195.213 272.691 195.121 274.176C195.037 275.492 194.96 276.77 194.96 277.986C194.96 279.294 193.902 280.356 192.598 280.356C191.295 280.356 190.236 279.294 190.236 277.986C190.236 276.77 190.329 275.354 190.421 273.884C190.735 268.873 191.103 263.117 187.1 262.393H184.002C183.826 262.393 183.657 262.378 183.496 262.339C183.527 264.156 183.404 266.041 183.289 267.85C183.205 269.166 183.128 270.443 183.128 271.659C183.128 272.968 182.07 274.03 180.766 274.03C179.462 274.03 178.404 272.968 178.404 271.659C178.404 270.443 178.496 269.027 178.588 267.557C178.903 262.547 179.271 256.79 175.268 256.067H172.162C171.947 256.067 171.74 256.036 171.549 255.982V265.149C171.549 266.457 170.49 267.519 169.187 267.519C167.883 267.519 166.825 266.457 166.825 265.149V240.559C166.825 236.442 165.153 233.841 163.014 232.755C162.232 232.355 161.388 232.155 160.552 232.155C159.724 232.155 158.88 232.355 158.106 232.748C155.989 233.825 154.333 236.434 154.333 240.659V283.758C154.333 285.066 153.275 286.128 151.971 286.128C150.668 286.128 149.609 285.066 149.609 283.758V279.379H149.617ZM171.556 251.411C171.756 251.357 171.963 251.326 172.17 251.326H175.421C175.605 251.326 175.782 251.349 175.95 251.388C180.283 252.065 182.215 254.605 183.005 257.876C183.304 257.737 183.642 257.652 184.002 257.652H187.253C187.438 257.652 187.614 257.676 187.783 257.714C192.445 258.437 194.324 261.324 194.999 264.956C195.114 264.941 195.236 264.925 195.359 264.925H198.61C198.794 264.925 198.971 264.948 199.139 264.987C208.065 266.372 207.958 275.277 207.866 282.465C207.866 282.719 207.858 282.988 207.858 284.273V284.327L208.042 292.616C208.05 292.701 208.05 292.793 208.042 292.878C207.697 299.927 204.921 304.514 201.724 309.794C201.187 310.671 200.642 311.579 199.929 312.819C199.914 312.849 199.899 312.88 199.876 312.919C198.204 315.843 196.272 318.083 194.071 319.607C191.832 321.161 189.347 321.962 186.625 321.992C186.556 322 186.479 322 186.41 322H158.528V321.992C155.721 322.046 153.543 320.815 151.941 318.406C150.652 316.474 149.801 313.765 149.333 310.348L131.803 285.212C131.78 285.182 131.75 285.151 131.727 285.12C130.684 283.719 129.265 281.541 128.207 279.125C127.409 277.308 126.804 275.338 126.681 273.414C126.527 271.128 126.85 269.289 127.494 267.85C128.299 266.064 129.579 264.902 131.129 264.263C132.578 263.671 134.204 263.586 135.852 263.917C137.823 264.31 139.855 265.31 141.596 266.749C143.022 267.935 145.392 269.882 147.692 271.767L149.625 273.353V240.659C149.625 234.395 152.408 230.354 155.974 228.53C157.408 227.799 158.98 227.437 160.56 227.437C162.132 227.437 163.704 227.807 165.146 228.538C168.742 230.362 171.556 234.402 171.556 240.559V251.411Z" fill="#259BDD"/>
</g>
<g filter="url(#filter1_i)">
<path d="M82.4668 53.6H88.9168L104.317 89H95.5168L92.4668 81.5H78.7168L75.7668 89H67.1668L82.4668 53.6ZM85.4668 63.9L81.1668 74.9H89.8168L85.4668 63.9ZM107.627 64.7H114.527V67.9H114.627C114.927 67.4667 115.311 67.0333 115.777 66.6C116.277 66.1333 116.844 65.7167 117.477 65.35C118.144 64.9833 118.861 64.6833 119.627 64.45C120.394 64.2167 121.211 64.1 122.077 64.1C123.877 64.1 125.511 64.4167 126.977 65.05C128.444 65.65 129.694 66.5167 130.727 67.65C131.794 68.75 132.611 70.0667 133.177 71.6C133.744 73.1333 134.027 74.8167 134.027 76.65C134.027 78.35 133.761 79.9833 133.227 81.55C132.727 83.0833 131.994 84.45 131.027 85.65C130.094 86.85 128.944 87.8167 127.577 88.55C126.211 89.25 124.661 89.6 122.927 89.6C121.361 89.6 119.894 89.3667 118.527 88.9C117.194 88.4 116.094 87.5667 115.227 86.4H115.127V100.4H107.627V64.7ZM114.527 76.85C114.527 78.6833 115.044 80.1667 116.077 81.3C117.144 82.4333 118.627 83 120.527 83C122.427 83 123.894 82.4333 124.927 81.3C125.994 80.1667 126.527 78.6833 126.527 76.85C126.527 75.0167 125.994 73.5333 124.927 72.4C123.894 71.2667 122.427 70.7 120.527 70.7C118.627 70.7 117.144 71.2667 116.077 72.4C115.044 73.5333 114.527 75.0167 114.527 76.85ZM139.121 64.7H146.021V67.9H146.121C146.421 67.4667 146.805 67.0333 147.271 66.6C147.771 66.1333 148.338 65.7167 148.971 65.35C149.638 64.9833 150.355 64.6833 151.121 64.45C151.888 64.2167 152.705 64.1 153.571 64.1C155.371 64.1 157.005 64.4167 158.471 65.05C159.938 65.65 161.188 66.5167 162.221 67.65C163.288 68.75 164.105 70.0667 164.671 71.6C165.238 73.1333 165.521 74.8167 165.521 76.65C165.521 78.35 165.255 79.9833 164.721 81.55C164.221 83.0833 163.488 84.45 162.521 85.65C161.588 86.85 160.438 87.8167 159.071 88.55C157.705 89.25 156.155 89.6 154.421 89.6C152.855 89.6 151.388 89.3667 150.021 88.9C148.688 88.4 147.588 87.5667 146.721 86.4H146.621V100.4H139.121V64.7ZM146.021 76.85C146.021 78.6833 146.538 80.1667 147.571 81.3C148.638 82.4333 150.121 83 152.021 83C153.921 83 155.388 82.4333 156.421 81.3C157.488 80.1667 158.021 78.6833 158.021 76.85C158.021 75.0167 157.488 73.5333 156.421 72.4C155.388 71.2667 153.921 70.7 152.021 70.7C150.121 70.7 148.638 71.2667 147.571 72.4C146.538 73.5333 146.021 75.0167 146.021 76.85ZM195.611 79.55H183.311V73.55H195.611V79.55ZM215.25 53.6H228.95C230.75 53.6 232.45 53.7833 234.05 54.15C235.684 54.4833 237.1 55.0667 238.3 55.9C239.534 56.7 240.5 57.8 241.2 59.2C241.934 60.5667 242.3 62.2833 242.3 64.35C242.3 66.85 241.65 68.9833 240.35 70.75C239.05 72.4833 237.15 73.5833 234.65 74.05L243.65 89H234.3L226.9 74.85H223.05V89H215.25V53.6ZM223.05 68.25H227.65C228.35 68.25 229.084 68.2333 229.85 68.2C230.65 68.1333 231.367 67.9833 232 67.75C232.634 67.4833 233.15 67.0833 233.55 66.55C233.984 66.0167 234.2 65.2667 234.2 64.3C234.2 63.4 234.017 62.6833 233.65 62.15C233.284 61.6167 232.817 61.2167 232.25 60.95C231.684 60.65 231.034 60.45 230.3 60.35C229.567 60.25 228.85 60.2 228.15 60.2H223.05V68.25ZM269.722 84.8C268.522 86.3333 267.006 87.5167 265.172 88.35C263.339 89.1833 261.439 89.6 259.472 89.6C257.606 89.6 255.839 89.3 254.172 88.7C252.539 88.1 251.106 87.25 249.872 86.15C248.672 85.0167 247.722 83.6667 247.022 82.1C246.322 80.5333 245.972 78.7833 245.972 76.85C245.972 74.9167 246.322 73.1667 247.022 71.6C247.722 70.0333 248.672 68.7 249.872 67.6C251.106 66.4667 252.539 65.6 254.172 65C255.839 64.4 257.606 64.1 259.472 64.1C261.206 64.1 262.772 64.4 264.172 65C265.606 65.6 266.806 66.4667 267.772 67.6C268.772 68.7 269.539 70.0333 270.072 71.6C270.606 73.1667 270.872 74.9167 270.872 76.85V79.2H253.472C253.772 80.6333 254.422 81.7833 255.422 82.65C256.422 83.4833 257.656 83.9 259.122 83.9C260.356 83.9 261.389 83.6333 262.222 83.1C263.089 82.5333 263.839 81.8167 264.472 80.95L269.722 84.8ZM263.372 74.1C263.406 72.8333 262.989 71.75 262.122 70.85C261.256 69.95 260.139 69.5 258.772 69.5C257.939 69.5 257.206 69.6333 256.572 69.9C255.939 70.1667 255.389 70.5167 254.922 70.95C254.489 71.35 254.139 71.8333 253.872 72.4C253.639 72.9333 253.506 73.5 253.472 74.1H263.372Z" fill="#259BDD"/>
</g>
<g filter="url(#filter2_i)">
<path d="M332.4 166.497V174.297H319.2V189.447H332.4V197.247H297V189.447H312.3V174.297H297V166.497H332.4ZM300.05 218.737V218.637C298.75 217.804 297.817 216.687 297.25 215.287C296.683 213.92 296.4 212.47 296.4 210.937C296.4 209.804 296.567 208.704 296.9 207.637C297.2 206.604 297.667 205.687 298.3 204.887C298.933 204.087 299.717 203.454 300.65 202.987C301.583 202.52 302.667 202.287 303.9 202.287C305.3 202.287 306.483 202.537 307.45 203.037C308.417 203.57 309.217 204.27 309.85 205.137C310.483 206.037 310.967 207.054 311.3 208.187C311.667 209.32 311.933 210.487 312.1 211.687C312.267 212.92 312.367 214.137 312.4 215.337C312.433 216.57 312.45 217.704 312.45 218.737C313.783 218.737 314.833 218.254 315.6 217.287C316.4 216.354 316.8 215.237 316.8 213.937C316.8 212.704 316.533 211.57 316 210.537C315.5 209.537 314.8 208.637 313.9 207.837L318 203.837C319.3 205.237 320.267 206.87 320.9 208.737C321.567 210.604 321.9 212.537 321.9 214.537C321.9 216.737 321.617 218.537 321.05 219.937C320.517 221.37 319.717 222.504 318.65 223.337C317.583 224.204 316.267 224.804 314.7 225.137C313.167 225.47 311.383 225.637 309.35 225.637H297V218.737H300.05ZM307.65 216.887C307.65 216.32 307.617 215.604 307.55 214.737C307.517 213.904 307.383 213.087 307.15 212.287C306.917 211.52 306.567 210.854 306.1 210.287C305.633 209.754 304.983 209.487 304.15 209.487C303.25 209.487 302.583 209.87 302.15 210.637C301.717 211.404 301.5 212.204 301.5 213.037C301.5 213.77 301.6 214.47 301.8 215.137C302 215.837 302.283 216.454 302.65 216.987C303.017 217.52 303.483 217.937 304.05 218.237C304.617 218.57 305.283 218.737 306.05 218.737H307.65V216.887ZM321.3 230.342V237.542H318V237.642C318.467 237.876 318.933 238.209 319.4 238.642C319.867 239.076 320.283 239.592 320.65 240.192C321.017 240.792 321.317 241.476 321.55 242.242C321.783 243.009 321.9 243.842 321.9 244.742C321.9 246.642 321.6 248.176 321 249.342C320.433 250.509 319.633 251.409 318.6 252.042C317.567 252.709 316.35 253.159 314.95 253.392C313.55 253.626 312.033 253.742 310.4 253.742H297V246.242H308.9C309.6 246.242 310.317 246.209 311.05 246.142C311.817 246.109 312.517 245.959 313.15 245.692C313.783 245.459 314.3 245.076 314.7 244.542C315.1 244.042 315.3 243.309 315.3 242.342C315.3 241.376 315.117 240.592 314.75 239.992C314.417 239.392 313.95 238.926 313.35 238.592C312.783 238.292 312.133 238.092 311.4 237.992C310.667 237.892 309.9 237.842 309.1 237.842H297V230.342H321.3ZM297 284.553V277.653H300.2V277.553C299.767 277.253 299.317 276.853 298.85 276.353C298.417 275.887 298.017 275.32 297.65 274.653C297.283 274.02 296.983 273.303 296.75 272.503C296.517 271.737 296.4 270.937 296.4 270.103C296.4 268.303 296.7 266.67 297.3 265.203C297.933 263.737 298.8 262.47 299.9 261.403C301.033 260.37 302.367 259.57 303.9 259.003C305.433 258.437 307.117 258.153 308.95 258.153C310.65 258.153 312.267 258.403 313.8 258.903C315.367 259.437 316.75 260.17 317.95 261.103C319.15 262.07 320.1 263.237 320.8 264.603C321.533 265.97 321.9 267.52 321.9 269.253C321.9 270.82 321.65 272.27 321.15 273.603C320.683 274.97 319.867 276.087 318.7 276.953V277.053H334.8V284.553H297ZM309.15 277.653C310.983 277.653 312.467 277.12 313.6 276.053C314.733 275.02 315.3 273.553 315.3 271.653C315.3 269.753 314.733 268.27 313.6 267.203C312.467 266.17 310.983 265.653 309.15 265.653C307.317 265.653 305.833 266.17 304.7 267.203C303.567 268.27 303 269.753 303 271.653C303 273.553 303.567 275.02 304.7 276.053C305.833 277.12 307.317 277.653 309.15 277.653Z" fill="#259BDD"/>
</g>
<g filter="url(#filter3_i)">
<path d="M281 76C322.6 88 326.667 132.333 323.5 153" stroke="#259BDD" stroke-width="7"/>
</g>
<path d="M358 555.108C136.5 455.108 14.9 465.508 -223.5 601.108L-461 2821.61L1900.5 2735.61C1900.5 2735.61 1859.5 424.608 1733.5 298.608C1607.5 172.608 1302.5 260.608 1115.5 429.608C928.5 598.608 584.8 632.708 358 555.108Z" fill="url(#paint0_linear)" fill-opacity="0.06"/>
<path d="M358 663.108C136.5 563.108 14.9 573.508 -223.5 709.108L-461 2929.61L1900.5 2843.61C1900.5 2843.61 1859.5 532.608 1733.5 406.608C1607.5 280.608 1302.5 368.608 1115.5 537.608C928.5 706.608 584.8 740.708 358 663.108Z" fill="url(#paint1_linear)" fill-opacity="0.06"/>
<path d="M358 798.108C136.5 698.108 14.9 708.508 -223.5 844.108L-461 3064.61L1900.5 2978.61C1900.5 2978.61 1859.5 667.608 1733.5 541.608C1607.5 415.608 1302.5 503.608 1115.5 672.608C928.5 841.608 584.8 875.708 358 798.108Z" fill="url(#paint2_linear)" fill-opacity="0.06"/>
</g>
<defs>
<filter id="filter0_i" x="126.643" y="227.437" width="81.4052" height="98.5627" filterUnits="userSpaceOnUse" color-interpolation-filters="sRGB">
<feFlood flood-opacity="0" result="BackgroundImageFix"/>
<feBlend mode="normal" in="SourceGraphic" in2="BackgroundImageFix" result="shape"/>
<feColorMatrix in="SourceAlpha" type="matrix" values="0 0 0 0 0 0 0 0 0 0 0 0 0 0 0 0 0 0 127 0" result="hardAlpha"/>
<feOffset dy="4"/>
<feGaussianBlur stdDeviation="2"/>
<feComposite in2="hardAlpha" operator="arithmetic" k2="-1" k3="1"/>
<feColorMatrix type="matrix" values="0 0 0 0 0 0 0 0 0 0 0 0 0 0 0 0 0 0 0.25 0"/>
<feBlend mode="normal" in2="shape" result="effect1_innerShadow"/>
</filter>
<filter id="filter1_i" x="67.1668" y="53.6" width="203.705" height="50.8" filterUnits="userSpaceOnUse" color-interpolation-filters="sRGB">
<feFlood flood-opacity="0" result="BackgroundImageFix"/>
<feBlend mode="normal" in="SourceGraphic" in2="BackgroundImageFix" result="shape"/>
<feColorMatrix in="SourceAlpha" type="matrix" values="0 0 0 0 0 0 0 0 0 0 0 0 0 0 0 0 0 0 127 0" result="hardAlpha"/>
<feOffset dy="4"/>
<feGaussianBlur stdDeviation="2"/>
<feComposite in2="hardAlpha" operator="arithmetic" k2="-1" k3="1"/>
<feColorMatrix type="matrix" values="0 0 0 0 0 0 0 0 0 0 0 0 0 0 0 0 0 0 0.25 0"/>
<feBlend mode="normal" in2="shape" result="effect1_innerShadow"/>
</filter>
<filter id="filter2_i" x="296.4" y="166.497" width="38.4" height="122.056" filterUnits="userSpaceOnUse" color-interpolation-filters="sRGB">
<feFlood flood-opacity="0" result="BackgroundImageFix"/>
<feBlend mode="normal" in="SourceGraphic" in2="BackgroundImageFix" result="shape"/>
<feColorMatrix in="SourceAlpha" type="matrix" values="0 0 0 0 0 0 0 0 0 0 0 0 0 0 0 0 0 0 127 0" result="hardAlpha"/>
<feOffset dy="4"/>
<feGaussianBlur stdDeviation="2"/>
<feComposite in2="hardAlpha" operator="arithmetic" k2="-1" k3="1"/>
<feColorMatrix type="matrix" values="0 0 0 0 0 0 0 0 0 0 0 0 0 0 0 0 0 0 0.25 0"/>
<feBlend mode="normal" in2="shape" result="effect1_innerShadow"/>
</filter>
<filter id="filter3_i" x="280.03" y="72.6371" width="47.8106" height="84.893" filterUnits="userSpaceOnUse" color-interpolation-filters="sRGB">
<feFlood flood-opacity="0" result="BackgroundImageFix"/>
<feBlend mode="normal" in="SourceGraphic" in2="BackgroundImageFix" result="shape"/>
<feColorMatrix in="SourceAlpha" type="matrix" values="0 0 0 0 0 0 0 0 0 0 0 0 0 0 0 0 0 0 127 0" result="hardAlpha"/>
<feOffset dy="4"/>
<feGaussianBlur stdDeviation="2"/>
<feComposite in2="hardAlpha" operator="arithmetic" k2="-1" k3="1"/>
<feColorMatrix type="matrix" values="0 0 0 0 0 0 0 0 0 0 0 0 0 0 0 0 0 0 0.25 0"/>
<feBlend mode="normal" in2="shape" result="effect1_innerShadow"/>
</filter>
<linearGradient id="paint0_linear" x1="719.75" y1="239" x2="720" y2="1442" gradientUnits="userSpaceOnUse">
<stop stop-color="#367CE5" stop-opacity="0.77"/>
<stop offset="1" stop-color="white"/>
</linearGradient>
<linearGradient id="paint1_linear" x1="719.75" y1="347" x2="720" y2="1550" gradientUnits="userSpaceOnUse">
<stop stop-color="#367CE5" stop-opacity="0.77"/>
<stop offset="1" stop-color="white"/>
</linearGradient>
<linearGradient id="paint2_linear" x1="719.75" y1="482" x2="720" y2="1685" gradientUnits="userSpaceOnUse">
<stop stop-color="#367CE5" stop-opacity="0.77"/>
<stop offset="1" stop-color="white"/>
</linearGradient>
<clipPath id="clip0">
<rect width="1440" height="1024" fill="white"/>
</clipPath>
</defs>
</svg>
